<svg width="20" height="20" viewBox="0 0 20 20" fill="none" xmlns="http://www.w3.org/2000/svg">
<path d="M19.5 12.7273C19.5 14.0899 19.0385 15.783 17.8384 17.1287C16.6506 18.4606 14.697 19.5 11.6129 19.5C8.45793 19.5 5.66357 18.893 3.67413 17.5979C1.71288 16.3211 0.5 14.3568 0.5 11.5152C0.5 8.58586 1.29437 5.82087 2.83149 3.80102C4.35764 1.79559 6.63173 0.5 9.67742 0.5C10.4084 0.5 10.9554 0.685111 11.4045 0.979101C11.8626 1.27896 12.2442 1.7087 12.6151 2.23717C12.8605 2.58675 13.0834 2.95167 13.3195 3.33825C13.4491 3.55045 13.5827 3.76919 13.7262 3.99551C14.1188 4.61471 14.5642 5.25296 15.1338 5.81154C15.185 5.86172 15.2364 5.91208 15.288 5.96262C16.2524 6.90746 17.2804 7.91463 18.0871 9.02218C18.9345 10.1858 19.5 11.4113 19.5 12.7273Z" fill="white" stroke="#E9E9E9"/>
<circle cx="11" cy="10" r="4" fill="#FFCC65"/>
</svg>
