<svg width="296" height="298" viewBox="0 0 296 298" fill="none" xmlns="http://www.w3.org/2000/svg">
<mask id="path-1-inside-1_69:13" fill="white">
<path fill-rule="evenodd" clip-rule="evenodd" d="M64.688 193.081C68.3045 193.818 71.9163 193.99 75.4459 193.653C75.2844 194.306 75.1356 194.965 74.9999 195.631C70.1751 219.299 83.7066 242.042 105.223 246.428C121.302 249.706 137.29 241.806 146.357 227.727C151.401 239.375 161.259 248.231 173.852 250.798C195.369 255.184 216.723 239.553 221.548 215.884C224.557 201.123 220.426 186.722 211.671 176.909C229.819 176.014 246.139 161.619 250.281 141.303C255.105 117.634 241.574 94.8917 220.057 90.5055C217.502 89.9846 214.948 89.746 212.425 89.7697C216.464 66.6002 203.043 44.6449 181.942 40.3435C164.546 36.7974 147.257 46.3351 138.723 62.6258C133.375 56.362 126.196 51.857 117.802 50.1458C96.2855 45.7596 74.9314 61.3909 70.1066 85.0593C68.5672 92.611 68.8965 100.069 70.7576 106.866C53.5532 108.815 38.4291 122.836 34.4647 142.284C29.6399 165.952 43.1713 188.695 64.688 193.081Z"/>
</mask>
<path fill-rule="evenodd" clip-rule="evenodd" d="M64.688 193.081C68.3045 193.818 71.9163 193.99 75.4459 193.653C75.2844 194.306 75.1356 194.965 74.9999 195.631C70.1751 219.299 83.7066 242.042 105.223 246.428C121.302 249.706 137.29 241.806 146.357 227.727C151.401 239.375 161.259 248.231 173.852 250.798C195.369 255.184 216.723 239.553 221.548 215.884C224.557 201.123 220.426 186.722 211.671 176.909C229.819 176.014 246.139 161.619 250.281 141.303C255.105 117.634 241.574 94.8917 220.057 90.5055C217.502 89.9846 214.948 89.746 212.425 89.7697C216.464 66.6002 203.043 44.6449 181.942 40.3435C164.546 36.7974 147.257 46.3351 138.723 62.6258C133.375 56.362 126.196 51.857 117.802 50.1458C96.2855 45.7596 74.9314 61.3909 70.1066 85.0593C68.5672 92.611 68.8965 100.069 70.7576 106.866C53.5532 108.815 38.4291 122.836 34.4647 142.284C29.6399 165.952 43.1713 188.695 64.688 193.081Z" fill="#FFFDFD"/>
<path d="M75.4459 193.653L76.4166 193.893L76.7555 192.524L75.3509 192.658L75.4459 193.653ZM64.688 193.081L64.4883 194.061L64.688 193.081ZM74.9999 195.631L74.0201 195.431L74.9999 195.631ZM105.223 246.428L105.024 247.408L105.223 246.428ZM146.357 227.727L147.275 227.329L146.531 225.61L145.517 227.185L146.357 227.727ZM173.852 250.798L174.052 249.818L173.852 250.798ZM221.548 215.884L222.527 216.084L221.548 215.884ZM211.671 176.909L211.622 175.911L209.532 176.014L210.925 177.575L211.671 176.909ZM250.281 141.303L251.26 141.503L250.281 141.303ZM220.057 90.5055L219.857 91.4854L220.057 90.5055ZM212.425 89.7697L211.439 89.598L211.233 90.781L212.434 90.7697L212.425 89.7697ZM181.942 40.3435L182.142 39.3637L181.942 40.3435ZM138.723 62.6258L137.962 63.2751L138.923 64.3997L139.609 63.0898L138.723 62.6258ZM117.802 50.1458L118.002 49.166L117.802 50.1458ZM70.1066 85.0593L69.1268 84.8595L70.1066 85.0593ZM70.7576 106.866L70.8702 107.859L72.0305 107.728L71.7221 106.602L70.7576 106.866ZM34.4647 142.284L35.4445 142.484L34.4647 142.284ZM75.3509 192.658C71.9181 192.985 68.4056 192.818 64.8877 192.101L64.4883 194.061C68.2033 194.818 71.9145 194.995 75.5409 194.649L75.3509 192.658ZM75.9798 195.831C76.1127 195.178 76.2585 194.533 76.4166 193.893L74.4751 193.413C74.3104 194.079 74.1586 194.752 74.0201 195.431L75.9798 195.831ZM105.423 245.448C84.5333 241.19 71.2469 219.048 75.9798 195.831L74.0201 195.431C69.1033 219.551 82.8799 242.894 105.024 247.408L105.423 245.448ZM145.517 227.185C136.639 240.969 121.041 248.632 105.423 245.448L105.024 247.408C121.563 250.78 137.941 242.642 147.198 228.268L145.517 227.185ZM174.052 249.818C161.815 247.324 152.204 238.714 147.275 227.329L145.44 228.124C150.597 240.036 160.702 249.138 173.652 251.778L174.052 249.818ZM220.568 215.685C215.835 238.902 194.942 254.076 174.052 249.818L173.652 251.778C195.796 256.292 217.611 240.204 222.527 216.084L220.568 215.685ZM210.925 177.575C219.463 187.145 223.516 201.222 220.568 215.685L222.527 216.084C225.597 201.024 221.389 186.3 212.417 176.244L210.925 177.575ZM249.301 141.103C245.241 161.02 229.265 175.04 211.622 175.911L211.72 177.908C230.372 176.987 247.038 162.218 251.26 141.503L249.301 141.103ZM219.857 91.4854C240.747 95.7438 254.034 117.886 249.301 141.103L251.26 141.503C256.177 117.383 242.401 94.0397 220.257 89.5257L219.857 91.4854ZM212.434 90.7697C214.888 90.7466 217.371 90.9786 219.857 91.4854L220.257 89.5257C217.632 88.9906 215.008 88.7454 212.415 88.7698L212.434 90.7697ZM181.742 41.3234C202.229 45.4996 215.401 66.8733 211.439 89.598L213.41 89.9415C217.527 66.3272 203.857 43.7903 182.142 39.3637L181.742 41.3234ZM139.609 63.0898C147.969 47.1321 164.848 37.8794 181.742 41.3234L182.142 39.3637C164.245 35.7155 146.546 45.5381 137.837 62.1617L139.609 63.0898ZM117.602 51.1257C125.763 52.7892 132.749 57.1688 137.962 63.2751L139.483 61.9765C134.001 55.5551 126.63 50.9248 118.002 49.166L117.602 51.1257ZM71.0865 85.259C75.8193 62.0418 96.7127 46.8673 117.602 51.1257L118.002 49.166C95.8583 44.652 74.0436 60.74 69.1268 84.8595L71.0865 85.259ZM71.7221 106.602C69.9023 99.9552 69.5785 92.6566 71.0865 85.259L69.1268 84.8595C67.5559 92.5655 67.8907 100.182 69.7931 107.13L71.7221 106.602ZM35.4445 142.484C39.3306 123.42 54.1359 109.755 70.8702 107.859L70.645 105.872C52.9706 107.874 37.5276 122.252 33.4848 142.084L35.4445 142.484ZM64.8877 192.101C43.998 187.843 30.7117 165.701 35.4445 142.484L33.4848 142.084C28.568 166.204 42.3446 189.547 64.4883 194.061L64.8877 192.101Z" fill="black" mask="url(#path-1-inside-1_69:13)"/>
<path d="M192.049 137.557C191.75 159.555 171.24 177.218 146.101 176.877C120.963 176.536 100.939 158.323 101.238 136.325C101.536 114.326 122.047 96.6633 147.185 97.0044C172.323 97.3455 192.347 115.558 192.049 137.557Z" fill="#FFC452" stroke="black"/>
<path d="M138.991 119.781C137.791 120.289 137.222 121.34 137.163 122.621C137.127 123.431 136.931 124.757 137.328 125.508C137.632 126.082 138.678 126.305 139.258 126.269C140.135 126.214 140.727 125.028 141.023 124.3C141.484 123.164 141.092 118.497 138.96 120.268C137.838 121.199 137.579 122.453 137.579 123.845C137.579 124.697 137.813 125.527 138.921 125.28C139.584 125.133 139.762 123.232 139.689 122.684C139.621 122.174 139.415 121.892 139.415 121.335" stroke="black" stroke-width="3" stroke-linecap="round"/>
<path d="M153.908 120C152.708 120.508 152.139 121.559 152.08 122.84C152.044 123.65 151.848 124.975 152.245 125.726C152.549 126.301 153.595 126.524 154.175 126.487C155.052 126.433 155.644 125.247 155.94 124.518C156.401 123.383 156.009 118.716 153.877 120.486C152.755 121.418 152.496 122.671 152.496 124.063C152.496 124.915 152.73 125.745 153.838 125.499C154.501 125.352 154.68 123.451 154.606 122.902C154.538 122.393 154.332 122.11 154.332 121.553" stroke="black" stroke-width="3" stroke-linecap="round"/>
<path d="M139 144.46C140.875 144.887 142.542 145.044 144.499 145.096C146.847 145.158 149.268 145.319 151.614 145.135C155.224 144.852 158.693 143.177 161.851 141.527C164.856 139.957 167.273 138.041 168.793 135" stroke="black" stroke-width="3" stroke-linecap="round"/>
</svg>
