<svg width="17" height="15" viewBox="0 0 17 15" fill="none" xmlns="http://www.w3.org/2000/svg">
<path d="M8.51845 0.74769C8.91169 0.343218 9.54925 0.343218 9.94249 0.74769L15.9842 6.96198C16.173 7.15621 16.2791 7.41965 16.2791 7.69434C16.2791 7.96903 16.173 8.23246 15.9842 8.4267L9.94249 14.641C9.54925 15.0455 8.91169 15.0455 8.51845 14.641C8.12521 14.2365 8.12522 13.5807 8.51845 13.1763L12.8412 8.73005L1.17491 8.73005C0.618793 8.73005 0.167969 8.26635 0.167969 7.69434C0.167969 7.12233 0.618793 6.65862 1.17491 6.65862L12.8412 6.65862L8.51845 2.21241C8.12521 1.80794 8.12521 1.15216 8.51845 0.74769Z" fill="#3A3A3A"/>
</svg>
