<svg width="13" height="13" viewBox="0 0 13 13" fill="none" xmlns="http://www.w3.org/2000/svg">
<circle cx="6.5" cy="6.5" r="6.5" fill="#FFE872"/>
<path d="M6.50953 3.63C6.3362 3.63 6.18953 3.57 6.06953 3.45C5.94953 3.33 5.88953 3.18333 5.88953 3.01C5.88953 2.83667 5.94953 2.69 6.06953 2.57C6.18953 2.45 6.3362 2.39 6.50953 2.39C6.6762 2.39 6.8162 2.45 6.92953 2.57C7.04953 2.69 7.10953 2.83667 7.10953 3.01C7.10953 3.18333 7.04953 3.33 6.92953 3.45C6.8162 3.57 6.6762 3.63 6.50953 3.63ZM6.94953 4.52V10H6.03953V4.52H6.94953Z" fill="#366EFE"/>
</svg>
