<svg width="7" height="7" viewBox="0 0 7 7" fill="none" xmlns="http://www.w3.org/2000/svg">
<path d="M4.27778 0.777778C4.063 0.777778 3.88889 0.603666 3.88889 0.388889C3.88889 0.174111 4.063 0 4.27778 0H6.61111C6.71425 0 6.81317 0.0409722 6.8861 0.113903C6.95903 0.186834 7 0.285749 7 0.388889L7 2.72222C7 2.937 6.82589 3.11111 6.61111 3.11111C6.39633 3.11111 6.22222 2.937 6.22222 2.72222L6.22222 1.32775L2.60832 4.94165C2.45645 5.09352 2.21022 5.09352 2.05835 4.94165C1.90648 4.78978 1.90648 4.54355 2.05835 4.39168L5.67225 0.777778H4.27778ZM0 1.55556C0 1.126 0.348223 0.777778 0.777778 0.777778H2.72222C2.937 0.777778 3.11111 0.951889 3.11111 1.16667C3.11111 1.38144 2.937 1.55556 2.72222 1.55556H0.777778V6.22222H5.44445V4.27778C5.44445 4.063 5.61856 3.88889 5.83333 3.88889C6.04811 3.88889 6.22222 4.063 6.22222 4.27778V6.22222C6.22222 6.65178 5.874 7 5.44445 7H0.777778C0.348223 7 0 6.65178 0 6.22222V1.55556Z" fill="#B6B6B6"/>
</svg>
