<svg width="17" height="20" viewBox="0 0 17 20" fill="none" xmlns="http://www.w3.org/2000/svg">
<path d="M16.5 12.0909C16.5 13.3939 16.1046 15.0038 15.089 16.2766C14.0888 17.5301 12.4541 18.5 9.87097 18.5C7.20582 18.5 4.85575 17.9272 3.18531 16.7118C1.53848 15.5136 0.5 13.6543 0.5 10.9394C0.5 8.1497 1.17738 5.52052 2.48185 3.60473C3.77528 1.70513 5.68497 0.5 8.22581 0.5C8.82051 0.5 9.26354 0.667131 9.63137 0.936255C10.0107 1.21378 10.3316 1.61561 10.6473 2.11834C10.8556 2.45002 11.0446 2.79597 11.2452 3.1629C11.3554 3.36458 11.4691 3.57261 11.5913 3.78809C11.9248 4.37595 12.3046 4.98472 12.7919 5.51882C12.8353 5.5664 12.8789 5.61413 12.9227 5.66202C13.7426 6.55979 14.6144 7.51444 15.2986 8.5644C16.0163 9.66581 16.5 10.8324 16.5 12.0909Z" stroke="#FFAB00"/>
<path d="M8.51144 7.356C8.30344 7.356 8.12744 7.284 7.98344 7.14C7.83944 6.996 7.76744 6.82 7.76744 6.612C7.76744 6.404 7.83944 6.228 7.98344 6.084C8.12744 5.94 8.30344 5.868 8.51144 5.868C8.71144 5.868 8.87944 5.94 9.01544 6.084C9.15944 6.228 9.23144 6.404 9.23144 6.612C9.23144 6.82 9.15944 6.996 9.01544 7.14C8.87944 7.284 8.71144 7.356 8.51144 7.356ZM9.03944 8.424V15H7.94744V8.424H9.03944Z" fill="#FFAB00"/>
</svg>
