<svg width="676" height="148" viewBox="0 0 676 148" fill="none" xmlns="http://www.w3.org/2000/svg">
<path d="M124 121.262H488L480.981 137.494H118L124 121.262Z" fill="#FFE872"/>
<path d="M23.45 55L11.65 39.5V55H3.1V19.9H11.65V35.3L23.35 19.9H33.4L19.8 37.1L33.9 55H23.45ZM64.2633 40.6C64.2633 41.4 64.2133 42.2333 64.1133 43.1H44.7633C44.8966 44.8333 45.4466 46.1667 46.4133 47.1C47.4133 48 48.6299 48.45 50.0633 48.45C52.1966 48.45 53.6799 47.55 54.5133 45.75H63.6133C63.1466 47.5833 62.2966 49.2333 61.0633 50.7C59.8633 52.1667 58.3466 53.3167 56.5133 54.15C54.6799 54.9833 52.6299 55.4 50.3633 55.4C47.6299 55.4 45.1966 54.8167 43.0633 53.65C40.9299 52.4833 39.2633 50.8167 38.0633 48.65C36.8633 46.4833 36.2633 43.95 36.2633 41.05C36.2633 38.15 36.8466 35.6167 38.0133 33.45C39.2133 31.2833 40.8799 29.6167 43.0133 28.45C45.1466 27.2833 47.5966 26.7 50.3633 26.7C53.0633 26.7 55.4633 27.2667 57.5633 28.4C59.6633 29.5333 61.2966 31.15 62.4633 33.25C63.6633 35.35 64.2633 37.8 64.2633 40.6ZM55.5133 38.35C55.5133 36.8833 55.0133 35.7167 54.0133 34.85C53.0133 33.9833 51.7633 33.55 50.2633 33.55C48.8299 33.55 47.6133 33.9667 46.6133 34.8C45.6466 35.6333 45.0466 36.8167 44.8133 38.35H55.5133ZM95.0738 40.6C95.0738 41.4 95.0238 42.2333 94.9238 43.1H75.5738C75.7072 44.8333 76.2572 46.1667 77.2238 47.1C78.2238 48 79.4405 48.45 80.8738 48.45C83.0072 48.45 84.4905 47.55 85.3238 45.75H94.4238C93.9572 47.5833 93.1072 49.2333 91.8738 50.7C90.6738 52.1667 89.1572 53.3167 87.3238 54.15C85.4905 54.9833 83.4405 55.4 81.1738 55.4C78.4405 55.4 76.0072 54.8167 73.8738 53.65C71.7405 52.4833 70.0738 50.8167 68.8738 48.65C67.6738 46.4833 67.0738 43.95 67.0738 41.05C67.0738 38.15 67.6572 35.6167 68.8238 33.45C70.0238 31.2833 71.6905 29.6167 73.8238 28.45C75.9572 27.2833 78.4072 26.7 81.1738 26.7C83.8738 26.7 86.2738 27.2667 88.3738 28.4C90.4738 29.5333 92.1072 31.15 93.2738 33.25C94.4738 35.35 95.0738 37.8 95.0738 40.6ZM86.3238 38.35C86.3238 36.8833 85.8238 35.7167 84.8238 34.85C83.8238 33.9833 82.5738 33.55 81.0738 33.55C79.6405 33.55 78.4238 33.9667 77.4238 34.8C76.4572 35.6333 75.8572 36.8167 75.6238 38.35H86.3238ZM108.134 31.05C108.968 29.75 110.118 28.7 111.584 27.9C113.051 27.1 114.768 26.7 116.734 26.7C119.034 26.7 121.118 27.2833 122.984 28.45C124.851 29.6167 126.318 31.2833 127.384 33.45C128.484 35.6167 129.034 38.1333 129.034 41C129.034 43.8667 128.484 46.4 127.384 48.6C126.318 50.7667 124.851 52.45 122.984 53.65C121.118 54.8167 119.034 55.4 116.734 55.4C114.801 55.4 113.084 55 111.584 54.2C110.118 53.4 108.968 52.3667 108.134 51.1V68.3H99.5844V27.1H108.134V31.05ZM120.334 41C120.334 38.8667 119.734 37.2 118.534 36C117.368 34.7667 115.918 34.15 114.184 34.15C112.484 34.15 111.034 34.7667 109.834 36C108.668 37.2333 108.084 38.9167 108.084 41.05C108.084 43.1833 108.668 44.8667 109.834 46.1C111.034 47.3333 112.484 47.95 114.184 47.95C115.884 47.95 117.334 47.3333 118.534 46.1C119.734 44.8333 120.334 43.1333 120.334 41ZM172.616 27.1L155.116 68.25H145.916L152.316 54.05L140.966 27.1H150.516L156.966 44.55L163.366 27.1H172.616ZM188.407 55.4C185.674 55.4 183.207 54.8167 181.007 53.65C178.841 52.4833 177.124 50.8167 175.857 48.65C174.624 46.4833 174.007 43.95 174.007 41.05C174.007 38.1833 174.641 35.6667 175.907 33.5C177.174 31.3 178.907 29.6167 181.107 28.45C183.307 27.2833 185.774 26.7 188.507 26.7C191.241 26.7 193.707 27.2833 195.907 28.45C198.107 29.6167 199.841 31.3 201.107 33.5C202.374 35.6667 203.007 38.1833 203.007 41.05C203.007 43.9167 202.357 46.45 201.057 48.65C199.791 50.8167 198.041 52.4833 195.807 53.65C193.607 54.8167 191.141 55.4 188.407 55.4ZM188.407 48C190.041 48 191.424 47.4 192.557 46.2C193.724 45 194.307 43.2833 194.307 41.05C194.307 38.8167 193.741 37.1 192.607 35.9C191.507 34.7 190.141 34.1 188.507 34.1C186.841 34.1 185.457 34.7 184.357 35.9C183.257 37.0667 182.707 38.7833 182.707 41.05C182.707 43.2833 183.241 45 184.307 46.2C185.407 47.4 186.774 48 188.407 48ZM235.093 27.1V55H226.543V51.2C225.677 52.4333 224.493 53.4333 222.993 54.2C221.527 54.9333 219.893 55.3 218.093 55.3C215.96 55.3 214.077 54.8333 212.443 53.9C210.81 52.9333 209.543 51.55 208.643 49.75C207.743 47.95 207.293 45.8333 207.293 43.4V27.1H215.793V42.25C215.793 44.1167 216.277 45.5667 217.243 46.6C218.21 47.6333 219.51 48.15 221.143 48.15C222.81 48.15 224.127 47.6333 225.093 46.6C226.06 45.5667 226.543 44.1167 226.543 42.25V27.1H235.093ZM249.785 31.75C250.785 30.2167 252.035 29.0167 253.535 28.15C255.035 27.25 256.701 26.8 258.535 26.8V35.85H256.185C254.051 35.85 252.451 36.3167 251.385 37.25C250.318 38.15 249.785 39.75 249.785 42.05V55H241.235V27.1H249.785V31.75ZM285.917 55.35C283.351 55.35 281.051 54.9333 279.017 54.1C276.984 53.2667 275.351 52.0333 274.117 50.4C272.917 48.7667 272.284 46.8 272.217 44.5H281.317C281.451 45.8 281.901 46.8 282.667 47.5C283.434 48.1667 284.434 48.5 285.667 48.5C286.934 48.5 287.934 48.2167 288.667 47.65C289.401 47.05 289.767 46.2333 289.767 45.2C289.767 44.3333 289.467 43.6167 288.867 43.05C288.301 42.4833 287.584 42.0167 286.717 41.65C285.884 41.2833 284.684 40.8667 283.117 40.4C280.851 39.7 279.001 39 277.567 38.3C276.134 37.6 274.901 36.5667 273.867 35.2C272.834 33.8333 272.317 32.05 272.317 29.85C272.317 26.5833 273.501 24.0333 275.867 22.2C278.234 20.3333 281.317 19.4 285.117 19.4C288.984 19.4 292.101 20.3333 294.467 22.2C296.834 24.0333 298.101 26.6 298.267 29.9H289.017C288.951 28.7667 288.534 27.8833 287.767 27.25C287.001 26.5833 286.017 26.25 284.817 26.25C283.784 26.25 282.951 26.5333 282.317 27.1C281.684 27.6333 281.367 28.4167 281.367 29.45C281.367 30.5833 281.901 31.4667 282.967 32.1C284.034 32.7333 285.701 33.4167 287.967 34.15C290.234 34.9167 292.067 35.65 293.467 36.35C294.901 37.05 296.134 38.0667 297.167 39.4C298.201 40.7333 298.717 42.45 298.717 44.55C298.717 46.55 298.201 48.3667 297.167 50C296.167 51.6333 294.701 52.9333 292.767 53.9C290.834 54.8667 288.551 55.35 285.917 55.35ZM320.579 55.35C317.279 55.35 314.246 54.5833 311.479 53.05C308.746 51.5167 306.562 49.3833 304.929 46.65C303.329 43.8833 302.529 40.7833 302.529 37.35C302.529 33.9167 303.329 30.8333 304.929 28.1C306.562 25.3667 308.746 23.2333 311.479 21.7C314.246 20.1667 317.279 19.4 320.579 19.4C323.879 19.4 326.896 20.1667 329.629 21.7C332.396 23.2333 334.562 25.3667 336.129 28.1C337.729 30.8333 338.529 33.9167 338.529 37.35C338.529 40.7833 337.729 43.8833 336.129 46.65C334.529 49.3833 332.362 51.5167 329.629 53.05C326.896 54.5833 323.879 55.35 320.579 55.35ZM320.579 47.55C323.379 47.55 325.612 46.6167 327.279 44.75C328.979 42.8833 329.829 40.4167 329.829 37.35C329.829 34.25 328.979 31.7833 327.279 29.95C325.612 28.0833 323.379 27.15 320.579 27.15C317.746 27.15 315.479 28.0667 313.779 29.9C312.112 31.7333 311.279 34.2167 311.279 37.35C311.279 40.45 312.112 42.9333 313.779 44.8C315.479 46.6333 317.746 47.55 320.579 47.55ZM351.836 48.4H363.036V55H343.286V19.9H351.836V48.4ZM386.259 31.05C387.059 29.75 388.209 28.7 389.709 27.9C391.209 27.1 392.926 26.7 394.859 26.7C397.159 26.7 399.243 27.2833 401.109 28.45C402.976 29.6167 404.443 31.2833 405.509 33.45C406.609 35.6167 407.159 38.1333 407.159 41C407.159 43.8667 406.609 46.4 405.509 48.6C404.443 50.7667 402.976 52.45 401.109 53.65C399.243 54.8167 397.159 55.4 394.859 55.4C392.893 55.4 391.176 55.0167 389.709 54.25C388.243 53.45 387.093 52.4 386.259 51.1V55H377.709V18H386.259V31.05ZM398.459 41C398.459 38.8667 397.859 37.2 396.659 36C395.493 34.7667 394.043 34.15 392.309 34.15C390.609 34.15 389.159 34.7667 387.959 36C386.793 37.2333 386.209 38.9167 386.209 41.05C386.209 43.1833 386.793 44.8667 387.959 46.1C389.159 47.3333 390.609 47.95 392.309 47.95C394.009 47.95 395.459 47.3333 396.659 46.1C397.859 44.8333 398.459 43.1333 398.459 41ZM420.195 31.75C421.195 30.2167 422.445 29.0167 423.945 28.15C425.445 27.25 427.112 26.8 428.945 26.8V35.85H426.595C424.462 35.85 422.862 36.3167 421.795 37.25C420.728 38.15 420.195 39.75 420.195 42.05V55H411.645V27.1H420.195V31.75ZM437.332 24.2C435.832 24.2 434.598 23.7667 433.632 22.9C432.698 22 432.232 20.9 432.232 19.6C432.232 18.2667 432.698 17.1667 433.632 16.3C434.598 15.4 435.832 14.95 437.332 14.95C438.798 14.95 439.998 15.4 440.932 16.3C441.898 17.1667 442.382 18.2667 442.382 19.6C442.382 20.9 441.898 22 440.932 22.9C439.998 23.7667 438.798 24.2 437.332 24.2ZM441.582 27.1V55H433.032V27.1H441.582ZM458.378 26.7C460.344 26.7 462.061 27.1 463.528 27.9C465.028 28.7 466.178 29.75 466.978 31.05V27.1H475.528V54.95C475.528 57.5167 475.011 59.8333 473.978 61.9C472.978 64 471.428 65.6667 469.328 66.9C467.261 68.1333 464.678 68.75 461.578 68.75C457.444 68.75 454.094 67.7667 451.528 65.8C448.961 63.8667 447.494 61.2333 447.128 57.9H455.578C455.844 58.9667 456.478 59.8 457.478 60.4C458.478 61.0333 459.711 61.35 461.178 61.35C462.944 61.35 464.344 60.8333 465.378 59.8C466.444 58.8 466.978 57.1833 466.978 54.95V51C466.144 52.3 464.994 53.3667 463.528 54.2C462.061 55 460.344 55.4 458.378 55.4C456.078 55.4 453.994 54.8167 452.128 53.65C450.261 52.45 448.778 50.7667 447.678 48.6C446.611 46.4 446.078 43.8667 446.078 41C446.078 38.1333 446.611 35.6167 447.678 33.45C448.778 31.2833 450.261 29.6167 452.128 28.45C453.994 27.2833 456.078 26.7 458.378 26.7ZM466.978 41.05C466.978 38.9167 466.378 37.2333 465.178 36C464.011 34.7667 462.578 34.15 460.878 34.15C459.178 34.15 457.728 34.7667 456.528 36C455.361 37.2 454.778 38.8667 454.778 41C454.778 43.1333 455.361 44.8333 456.528 46.1C457.728 47.3333 459.178 47.95 460.878 47.95C462.578 47.95 464.011 47.3333 465.178 46.1C466.378 44.8667 466.978 43.1833 466.978 41.05ZM498.863 26.8C502.063 26.8 504.63 27.8667 506.563 30C508.497 32.1 509.463 35 509.463 38.7V55H500.963V39.85C500.963 37.9833 500.48 36.5333 499.513 35.5C498.547 34.4667 497.247 33.95 495.613 33.95C493.98 33.95 492.68 34.4667 491.713 35.5C490.747 36.5333 490.263 37.9833 490.263 39.85V55H481.713V18H490.263V30.85C491.13 29.6167 492.313 28.6333 493.813 27.9C495.313 27.1667 496.997 26.8 498.863 26.8ZM530.955 47.75V55H526.605C523.505 55 521.088 54.25 519.355 52.75C517.621 51.2167 516.755 48.7333 516.755 45.3V34.2H513.355V27.1H516.755V20.3H525.305V27.1H530.905V34.2H525.305V45.4C525.305 46.2333 525.505 46.8333 525.905 47.2C526.305 47.5667 526.971 47.75 527.905 47.75H530.955ZM43.15 106.1L35.6 134H26.15L21.75 115.9L17.2 134H7.8L0.2 106.1H8.75L12.7 126.05L17.4 106.1H26.45L31.2 125.95L35.1 106.1H43.15ZM50.7105 103.2C49.2105 103.2 47.9772 102.767 47.0105 101.9C46.0772 101 45.6105 99.9 45.6105 98.6C45.6105 97.2667 46.0772 96.1667 47.0105 95.3C47.9772 94.4 49.2105 93.95 50.7105 93.95C52.1772 93.95 53.3772 94.4 54.3105 95.3C55.2772 96.1667 55.7605 97.2667 55.7605 98.6C55.7605 99.9 55.2772 101 54.3105 101.9C53.3772 102.767 52.1772 103.2 50.7105 103.2ZM54.9605 106.1V134H46.4105V106.1H54.9605ZM76.7066 126.75V134H72.3566C69.2566 134 66.84 133.25 65.1066 131.75C63.3733 130.217 62.5066 127.733 62.5066 124.3V113.2H59.1066V106.1H62.5066V99.3H71.0566V106.1H76.6566V113.2H71.0566V124.4C71.0566 125.233 71.2566 125.833 71.6566 126.2C72.0566 126.567 72.7233 126.75 73.6566 126.75H76.7066ZM98.6191 105.8C101.819 105.8 104.386 106.867 106.319 109C108.252 111.1 109.219 114 109.219 117.7V134H100.719V118.85C100.719 116.983 100.236 115.533 99.2691 114.5C98.3025 113.467 97.0025 112.95 95.3691 112.95C93.7358 112.95 92.4358 113.467 91.4691 114.5C90.5025 115.533 90.0191 116.983 90.0191 118.85V134H81.4691V97H90.0191V109.85C90.8858 108.617 92.0691 107.633 93.5691 106.9C95.0691 106.167 96.7525 105.8 98.6191 105.8ZM138.456 134.35C135.89 134.35 133.59 133.933 131.556 133.1C129.523 132.267 127.89 131.033 126.656 129.4C125.456 127.767 124.823 125.8 124.756 123.5H133.856C133.99 124.8 134.44 125.8 135.206 126.5C135.973 127.167 136.973 127.5 138.206 127.5C139.473 127.5 140.473 127.217 141.206 126.65C141.94 126.05 142.306 125.233 142.306 124.2C142.306 123.333 142.006 122.617 141.406 122.05C140.84 121.483 140.123 121.017 139.256 120.65C138.423 120.283 137.223 119.867 135.656 119.4C133.39 118.7 131.54 118 130.106 117.3C128.673 116.6 127.44 115.567 126.406 114.2C125.373 112.833 124.856 111.05 124.856 108.85C124.856 105.583 126.04 103.033 128.406 101.2C130.773 99.3333 133.856 98.4 137.656 98.4C141.523 98.4 144.64 99.3333 147.006 101.2C149.373 103.033 150.64 105.6 150.806 108.9H141.556C141.49 107.767 141.073 106.883 140.306 106.25C139.54 105.583 138.556 105.25 137.356 105.25C136.323 105.25 135.49 105.533 134.856 106.1C134.223 106.633 133.906 107.417 133.906 108.45C133.906 109.583 134.44 110.467 135.506 111.1C136.573 111.733 138.24 112.417 140.506 113.15C142.773 113.917 144.606 114.65 146.006 115.35C147.44 116.05 148.673 117.067 149.706 118.4C150.74 119.733 151.256 121.45 151.256 123.55C151.256 125.55 150.74 127.367 149.706 129C148.706 130.633 147.24 131.933 145.306 132.9C143.373 133.867 141.09 134.35 138.456 134.35ZM184.068 106.1V134H175.518V130.2C174.651 131.433 173.468 132.433 171.968 133.2C170.501 133.933 168.868 134.3 167.068 134.3C164.935 134.3 163.051 133.833 161.418 132.9C159.785 131.933 158.518 130.55 157.618 128.75C156.718 126.95 156.268 124.833 156.268 122.4V106.1H164.768V121.25C164.768 123.117 165.251 124.567 166.218 125.6C167.185 126.633 168.485 127.15 170.118 127.15C171.785 127.15 173.101 126.633 174.068 125.6C175.035 124.567 175.518 123.117 175.518 121.25V106.1H184.068ZM207.209 105.8C210.476 105.8 213.076 106.867 215.009 109C216.976 111.1 217.959 114 217.959 117.7V134H209.459V118.85C209.459 116.983 208.976 115.533 208.009 114.5C207.043 113.467 205.743 112.95 204.109 112.95C202.476 112.95 201.176 113.467 200.209 114.5C199.243 115.533 198.759 116.983 198.759 118.85V134H190.209V106.1H198.759V109.8C199.626 108.567 200.793 107.6 202.259 106.9C203.726 106.167 205.376 105.8 207.209 105.8ZM240.901 105.8C244.167 105.8 246.767 106.867 248.701 109C250.667 111.1 251.651 114 251.651 117.7V134H243.151V118.85C243.151 116.983 242.667 115.533 241.701 114.5C240.734 113.467 239.434 112.95 237.801 112.95C236.167 112.95 234.867 113.467 233.901 114.5C232.934 115.533 232.451 116.983 232.451 118.85V134H223.901V106.1H232.451V109.8C233.317 108.567 234.484 107.6 235.951 106.9C237.417 106.167 239.067 105.8 240.901 105.8ZM286.092 106.1L268.592 147.25H259.392L265.792 133.05L254.442 106.1H263.992L270.442 123.55L276.842 106.1H286.092ZM312.48 134.35C309.913 134.35 307.613 133.933 305.58 133.1C303.546 132.267 301.913 131.033 300.68 129.4C299.48 127.767 298.846 125.8 298.78 123.5H307.88C308.013 124.8 308.463 125.8 309.23 126.5C309.996 127.167 310.996 127.5 312.23 127.5C313.496 127.5 314.496 127.217 315.23 126.65C315.963 126.05 316.33 125.233 316.33 124.2C316.33 123.333 316.03 122.617 315.43 122.05C314.863 121.483 314.146 121.017 313.28 120.65C312.446 120.283 311.246 119.867 309.68 119.4C307.413 118.7 305.563 118 304.13 117.3C302.696 116.6 301.463 115.567 300.43 114.2C299.396 112.833 298.88 111.05 298.88 108.85C298.88 105.583 300.063 103.033 302.43 101.2C304.796 99.3333 307.88 98.4 311.68 98.4C315.546 98.4 318.663 99.3333 321.03 101.2C323.396 103.033 324.663 105.6 324.83 108.9H315.58C315.513 107.767 315.096 106.883 314.33 106.25C313.563 105.583 312.58 105.25 311.38 105.25C310.346 105.25 309.513 105.533 308.88 106.1C308.246 106.633 307.93 107.417 307.93 108.45C307.93 109.583 308.463 110.467 309.53 111.1C310.596 111.733 312.263 112.417 314.53 113.15C316.796 113.917 318.63 114.65 320.03 115.35C321.463 116.05 322.696 117.067 323.73 118.4C324.763 119.733 325.28 121.45 325.28 123.55C325.28 125.55 324.763 127.367 323.73 129C322.73 130.633 321.263 131.933 319.33 132.9C317.396 133.867 315.113 134.35 312.48 134.35ZM334.841 103.2C333.341 103.2 332.108 102.767 331.141 101.9C330.208 101 329.741 99.9 329.741 98.6C329.741 97.2667 330.208 96.1667 331.141 95.3C332.108 94.4 333.341 93.95 334.841 93.95C336.308 93.95 337.508 94.4 338.441 95.3C339.408 96.1667 339.891 97.2667 339.891 98.6C339.891 99.9 339.408 101 338.441 101.9C337.508 102.767 336.308 103.2 334.841 103.2ZM339.091 106.1V134H330.541V106.1H339.091ZM343.588 120C343.588 117.133 344.121 114.617 345.188 112.45C346.288 110.283 347.771 108.617 349.638 107.45C351.504 106.283 353.588 105.7 355.888 105.7C357.721 105.7 359.388 106.083 360.888 106.85C362.421 107.617 363.621 108.65 364.488 109.95V97H373.038V134H364.488V130C363.688 131.333 362.538 132.4 361.038 133.2C359.571 134 357.854 134.4 355.888 134.4C353.588 134.4 351.504 133.817 349.638 132.65C347.771 131.45 346.288 129.767 345.188 127.6C344.121 125.4 343.588 122.867 343.588 120ZM364.488 120.05C364.488 117.917 363.888 116.233 362.688 115C361.521 113.767 360.088 113.15 358.388 113.15C356.688 113.15 355.238 113.767 354.038 115C352.871 116.2 352.288 117.867 352.288 120C352.288 122.133 352.871 123.833 354.038 125.1C355.238 126.333 356.688 126.95 358.388 126.95C360.088 126.95 361.521 126.333 362.688 125.1C363.888 123.867 364.488 122.183 364.488 120.05ZM405.523 119.6C405.523 120.4 405.473 121.233 405.373 122.1H386.023C386.156 123.833 386.706 125.167 387.673 126.1C388.673 127 389.89 127.45 391.323 127.45C393.456 127.45 394.94 126.55 395.773 124.75H404.873C404.406 126.583 403.556 128.233 402.323 129.7C401.123 131.167 399.606 132.317 397.773 133.15C395.94 133.983 393.89 134.4 391.623 134.4C388.89 134.4 386.456 133.817 384.323 132.65C382.19 131.483 380.523 129.817 379.323 127.65C378.123 125.483 377.523 122.95 377.523 120.05C377.523 117.15 378.106 114.617 379.273 112.45C380.473 110.283 382.14 108.617 384.273 107.45C386.406 106.283 388.856 105.7 391.623 105.7C394.323 105.7 396.723 106.267 398.823 107.4C400.923 108.533 402.556 110.15 403.723 112.25C404.923 114.35 405.523 116.8 405.523 119.6ZM396.773 117.35C396.773 115.883 396.273 114.717 395.273 113.85C394.273 112.983 393.023 112.55 391.523 112.55C390.09 112.55 388.873 112.967 387.873 113.8C386.906 114.633 386.306 115.817 386.073 117.35H396.773ZM429.029 98.9V119.9C429.029 122 429.546 123.617 430.579 124.75C431.613 125.883 433.129 126.45 435.129 126.45C437.129 126.45 438.663 125.883 439.729 124.75C440.796 123.617 441.329 122 441.329 119.9V98.9H449.879V119.85C449.879 122.983 449.213 125.633 447.879 127.8C446.546 129.967 444.746 131.6 442.479 132.7C440.246 133.8 437.746 134.35 434.979 134.35C432.213 134.35 429.729 133.817 427.529 132.75C425.363 131.65 423.646 130.017 422.379 127.85C421.113 125.65 420.479 122.983 420.479 119.85V98.9H429.029ZM464.433 110.05C465.267 108.75 466.417 107.7 467.883 106.9C469.35 106.1 471.067 105.7 473.033 105.7C475.333 105.7 477.417 106.283 479.283 107.45C481.15 108.617 482.617 110.283 483.683 112.45C484.783 114.617 485.333 117.133 485.333 120C485.333 122.867 484.783 125.4 483.683 127.6C482.617 129.767 481.15 131.45 479.283 132.65C477.417 133.817 475.333 134.4 473.033 134.4C471.1 134.4 469.383 134 467.883 133.2C466.417 132.4 465.267 131.367 464.433 130.1V147.3H455.883V106.1H464.433V110.05ZM476.633 120C476.633 117.867 476.033 116.2 474.833 115C473.667 113.767 472.217 113.15 470.483 113.15C468.783 113.15 467.333 113.767 466.133 115C464.967 116.233 464.383 117.917 464.383 120.05C464.383 122.183 464.967 123.867 466.133 125.1C467.333 126.333 468.783 126.95 470.483 126.95C472.183 126.95 473.633 126.333 474.833 125.1C476.033 123.833 476.633 122.133 476.633 120Z" fill="#3A3A3A"/>
</svg>
