<svg width="373" height="368" viewBox="0 0 373 368" fill="none" xmlns="http://www.w3.org/2000/svg">
<path d="M151.639 332.082C235.387 351.499 318.689 300.772 337.7 218.779C356.711 136.786 304.231 54.5762 220.483 35.1587C136.735 15.7411 53.4325 66.4685 34.4218 148.462C15.4111 230.455 67.8911 312.664 151.639 332.082Z" fill="#FFE872"/>
<path d="M113.445 135.94C115.182 145.396 121.606 153.917 130.964 156.962C141 160.209 151.419 155.156 158.839 148.743C159.244 148.324 159.561 147.83 159.77 147.289C159.98 146.748 160.078 146.171 160.059 145.591C160.041 145.01 159.906 144.438 159.662 143.907C159.418 143.376 159.07 142.896 158.639 142.495C157.754 141.71 156.597 141.287 155.41 141.315C154.223 141.344 153.098 141.821 152.269 142.648C149.476 145.172 146.171 147.088 142.565 148.275C139.467 149.328 136.095 149.362 132.956 148.37C132.196 148.194 132.956 148.37 132.518 148.269C132.079 148.167 131.805 147.953 131.448 147.764C130.726 147.402 130.035 146.984 129.379 146.515C128.337 145.642 127.361 144.695 126.461 143.681C124.097 140.657 122.551 137.1 121.968 133.344C121.542 130.997 118.434 129.778 116.327 130.422C115.206 130.786 114.275 131.561 113.727 132.586C113.18 133.611 113.057 134.807 113.386 135.926L113.445 135.94Z" fill="#3A3A3A"/>
<path d="M54.9146 122.162C56.6376 131.615 62.9883 140.119 72.4194 143.18C82.4549 146.428 92.9615 141.395 100.309 134.965C101.122 134.117 101.555 132.984 101.515 131.814C101.474 130.645 100.961 129.535 100.09 128.728C99.2099 127.943 98.0573 127.519 96.8735 127.545C95.6897 127.572 94.5664 128.046 93.7386 128.87C90.9494 131.398 87.6428 133.315 84.0345 134.496C80.9318 135.551 77.5542 135.583 74.4115 134.589C73.6655 134.416 74.4115 134.589 73.9873 134.491L72.9063 133.968C72.1862 133.607 71.4937 133.194 70.8345 132.734C69.8303 131.856 68.8848 130.916 68.0039 129.92C65.6475 126.899 64.1056 123.349 63.5226 119.601C63.0813 117.25 59.9911 116.021 57.8847 116.664C56.7635 117.028 55.8324 117.803 55.2847 118.828C54.737 119.853 54.615 121.049 54.9439 122.169L54.9146 122.162Z" fill="#3A3A3A"/>
<path d="M67.7988 181.85C73.5723 192.046 84.3101 198.912 95.4318 202.26C106.919 205.698 119.227 205.145 130.271 200.696C136.144 198.402 141.378 194.79 145.555 190.146C146.004 189.736 146.362 189.239 146.606 188.685C146.85 188.132 146.975 187.534 146.973 186.929C146.971 186.324 146.843 185.724 146.595 185.168C146.348 184.611 145.987 184.109 145.535 183.694C145.083 183.278 144.549 182.957 143.967 182.751C143.386 182.545 142.768 182.458 142.153 182.495C141.538 182.533 140.938 182.694 140.392 182.969C139.845 183.244 139.363 183.627 138.975 184.094C133.137 190.858 124.098 194.617 114.899 195.472C104.723 196.421 94.4919 193.889 85.9372 188.304C81.5651 185.503 77.9439 181.707 75.3865 177.242C74.7307 176.29 73.7263 175.622 72.5851 175.378C71.4438 175.134 70.2547 175.334 69.2683 175.934C68.2819 176.535 67.5753 177.49 67.2972 178.598C67.0191 179.707 67.1913 180.881 67.7775 181.875L67.7988 181.85Z" fill="#3A3A3A"/>
</svg>
