<svg width="36" height="35" viewBox="0 0 36 35" fill="none" xmlns="http://www.w3.org/2000/svg">
<g clip-path="url(#clip0_507:333)">
<path d="M35.4011 35C23.7781 35 12.1552 35 0.532227 35C0.532227 23.3333 0.532227 11.6667 0.532227 0C12.1552 0 23.7781 0 35.4011 0C35.4011 11.6667 35.4011 23.3333 35.4011 35ZM27.7907 25.1785C27.6683 24.9568 27.6102 24.7791 27.4949 24.6571C27.1041 24.2469 26.6991 23.8485 26.286 23.4608C26.0875 23.2741 25.9946 23.0748 25.9955 22.7948C26.0026 19.1467 26.0026 15.4979 25.9955 11.8497C25.9946 11.5724 26.076 11.3687 26.2798 11.1821C26.7098 10.7899 27.1309 10.3878 27.5359 9.96962C27.6495 9.85206 27.6942 9.66808 27.8015 9.45269C25.889 9.45269 24.0911 9.45269 22.2726 9.45269C20.9859 12.6718 19.703 15.8819 18.3941 19.1585C18.2895 18.9475 18.2198 18.8165 18.1589 18.681C16.825 15.7446 15.4847 12.8109 14.1677 9.86731C14.014 9.52359 13.8316 9.42038 13.4704 9.42487C11.8914 9.44371 10.3125 9.43294 8.73357 9.43294C8.57443 9.43294 8.41528 9.43294 8.13543 9.43294C8.25972 9.68602 8.31246 9.86731 8.42155 10.0037C8.8963 10.5987 9.36657 11.2 9.87978 11.7609C10.2195 12.1315 10.3268 12.5291 10.3241 13.02C10.308 15.7706 10.3063 18.5221 10.3268 21.2737C10.3304 21.7565 10.2052 22.1352 9.89409 22.496C9.29863 23.1844 8.73357 23.8996 8.15511 24.6032C8.03262 24.7521 7.89225 24.8967 8.02458 25.1175C9.96561 25.1175 11.9058 25.1175 13.9531 25.1175C13.8289 24.8814 13.7672 24.7037 13.6564 24.5656C13.0582 23.8206 12.4502 23.0838 11.8387 22.3498C11.6188 22.0859 11.5097 21.8006 11.5115 21.4496C11.5204 19.1019 11.5159 16.7552 11.5177 14.4075C11.5177 14.3025 11.5383 14.1965 11.5589 14.0054C11.6402 14.1598 11.6769 14.2225 11.7064 14.2881C12.5191 16.0677 13.33 17.8473 14.1428 19.6269C14.9304 21.3517 15.7199 23.0767 16.5085 24.8015C16.5871 24.9738 16.6319 25.1498 16.8938 25.1659C17.213 25.1865 17.3293 25.0412 17.4347 24.7702C18.7723 21.3329 20.1196 17.8994 21.466 14.4658C21.517 14.3356 21.5806 14.21 21.6565 14.0431C21.6905 14.1292 21.7093 14.1535 21.7093 14.1777C21.7111 17.0638 21.7155 19.9491 21.7013 22.8352C21.7003 23.0175 21.5867 23.2373 21.458 23.3746C21.0396 23.8206 20.5908 24.2379 20.1518 24.6642C20.0088 24.8033 19.8728 24.9415 20.0096 25.1802C22.5577 25.1785 25.1139 25.1785 27.7907 25.1785Z" fill="black"/>
<path d="M27.7907 25.1784C25.1139 25.1784 22.5587 25.1784 20.0079 25.1784C19.8711 24.9397 20.0069 24.8015 20.15 24.6624C20.589 24.2361 21.0378 23.8188 21.4563 23.3727C21.5858 23.2346 21.6985 23.0155 21.6994 22.8334C21.7137 19.9481 21.7092 17.0619 21.7074 14.1757C21.7074 14.1515 21.6896 14.1273 21.6547 14.0411C21.5787 14.2081 21.5153 14.3338 21.4643 14.4638C20.1178 17.8975 18.7695 21.3311 17.4329 24.7682C17.3274 25.0401 17.2111 25.1846 16.8919 25.164C16.6291 25.1469 16.5853 24.9719 16.5066 24.7997C15.718 23.0748 14.9285 21.3507 14.1409 19.625C13.3282 17.8454 12.5173 16.0657 11.7046 14.2861C11.6742 14.2207 11.6375 14.1578 11.557 14.0034C11.5365 14.1955 11.5159 14.3005 11.5159 14.4055C11.5141 16.7532 11.5186 19.1009 11.5096 21.4478C11.5088 21.7986 11.6169 22.084 11.8369 22.3478C12.4484 23.082 13.0555 23.8196 13.6545 24.5636C13.7654 24.7019 13.8271 24.8804 13.9514 25.1155C11.903 25.1155 9.9638 25.1155 8.02275 25.1155C7.89132 24.8948 8.0308 24.7503 8.15329 24.6013C8.73176 23.8978 9.29681 23.1834 9.89226 22.4942C10.2043 22.1334 10.3286 21.7547 10.325 21.2719C10.3053 18.5211 10.3071 15.7696 10.3223 13.0181C10.325 12.5272 10.2177 12.1297 9.87796 11.759C9.36476 11.1981 8.89447 10.5968 8.41972 10.0018C8.31065 9.86543 8.2579 9.68414 8.13362 9.43107C8.41347 9.43107 8.57261 9.43107 8.73176 9.43107C10.3107 9.43107 11.8896 9.44184 13.4686 9.42299C13.8298 9.41851 14.0121 9.5217 14.166 9.86543C15.4829 12.8099 16.8231 15.7427 18.1571 18.6792C18.2188 18.8138 18.2876 18.9448 18.3922 19.1565C19.7011 15.88 20.9842 12.669 22.2707 9.45082C24.0902 9.45082 25.8873 9.45082 27.7997 9.45082C27.6924 9.6653 27.6476 9.85017 27.5342 9.96774C27.1292 10.385 26.708 10.788 26.278 11.1802C26.0741 11.3668 25.9936 11.5706 25.9936 11.8479C26.0007 15.4959 26.0007 19.1449 25.9936 22.793C25.9927 23.073 26.0858 23.2722 26.2843 23.459C26.6973 23.8467 27.1023 24.2451 27.493 24.6552C27.6101 24.779 27.6683 24.9567 27.7907 25.1784Z" fill="#F9F3EB"/>
</g>
<defs>
<clipPath id="clip0_507:333">
<rect width="34.8689" height="35" fill="white" transform="translate(0.532227)"/>
</clipPath>
</defs>
</svg>
