<svg width="51" height="23" viewBox="0 0 51 23" fill="none" xmlns="http://www.w3.org/2000/svg">
<mask id="path-1-inside-1_2414_2884" fill="white">
<path d="M50.5172 22.8906C50.5172 19.8846 49.8639 16.908 48.5945 14.1308C47.3252 11.3535 45.4646 8.8301 43.1192 6.70451C40.7737 4.57892 37.9892 2.89281 34.9247 1.74244C31.8602 0.592083 28.5756 -1.31398e-07 25.2586 0C21.9416 1.31398e-07 18.6571 0.592084 15.5926 1.74245C12.528 2.89281 9.74356 4.57892 7.39808 6.70451C5.0526 8.8301 3.19206 11.3535 1.9227 14.1308C0.653333 16.908 -2.89982e-07 19.8846 0 22.8906L25.2586 22.8906H50.5172Z"/>
</mask>
<path d="M50.5172 22.8906C50.5172 19.8846 49.8639 16.908 48.5945 14.1308C47.3252 11.3535 45.4646 8.8301 43.1192 6.70451C40.7737 4.57892 37.9892 2.89281 34.9247 1.74244C31.8602 0.592083 28.5756 -1.31398e-07 25.2586 0C21.9416 1.31398e-07 18.6571 0.592084 15.5926 1.74245C12.528 2.89281 9.74356 4.57892 7.39808 6.70451C5.0526 8.8301 3.19206 11.3535 1.9227 14.1308C0.653333 16.908 -2.89982e-07 19.8846 0 22.8906L25.2586 22.8906H50.5172Z" fill="#FFE872" stroke="#3A3A3A" stroke-width="2.73066" mask="url(#path-1-inside-1_2414_2884)"/>
</svg>
