<svg width="54" height="54" viewBox="0 0 54 54" fill="none" xmlns="http://www.w3.org/2000/svg">
<rect width="54" height="54" rx="5" fill="#FFD276"/>
<path d="M42.606 32.1724C42.606 34.3994 41.8533 37.1661 39.8888 39.3694C37.9367 41.5588 34.7456 43.2396 29.7689 43.2396C24.7213 43.2396 20.2136 42.2695 16.9838 40.1665C13.7823 38.0819 11.8022 34.865 11.8022 30.2445C11.8022 25.5363 13.0782 21.0714 15.57 17.7964C18.0509 14.5357 21.7529 12.4297 26.6911 12.4297C27.9086 12.4297 28.835 12.7396 29.5991 13.2399C30.3722 13.7461 31.0044 14.4637 31.6041 15.3182C31.9992 15.8812 32.3624 16.4758 32.7416 17.0966C32.9467 17.4325 33.1565 17.776 33.3787 18.1264C33.999 19.1049 34.6929 20.0975 35.5744 20.9621C35.6573 21.0434 35.7406 21.1251 35.8244 21.2071C37.3538 22.7057 39.0049 24.3234 40.3025 26.1056C41.6689 27.982 42.606 29.992 42.606 32.1724Z" stroke="black"/>
<path d="M34.6548 27.8327C34.6548 31.0703 32.0308 33.6947 28.7941 33.6947C25.5574 33.6947 22.9333 31.0703 22.9333 27.8327C22.9333 24.5951 25.5574 21.9707 28.7941 21.9707C32.0308 21.9707 34.6548 24.5951 34.6548 27.8327Z" stroke="black"/>
</svg>
