<svg width="54" height="54" viewBox="0 0 54 54" fill="none" xmlns="http://www.w3.org/2000/svg">
<rect width="54" height="54" rx="5" fill="#FFD276"/>
<g clip-path="url(#clip0_1515_2544)">
<path d="M25.3964 9.18885C27.9248 9.18885 30.1108 9.45654 31.7167 9.96407C33.2172 10.4381 34.0873 11.0888 34.1659 11.7964C34.2696 12.7262 33.0027 13.8856 30.7768 14.8978C28.3505 16.001 25.0488 16.8461 21.479 17.2758C19.8909 17.4708 18.2933 17.5705 16.6942 17.5741C14.1653 17.5741 11.9792 17.3064 10.3728 16.7989C8.87231 16.3249 8.00224 15.6742 7.92364 14.9666C7.81993 14.0368 9.08682 12.8774 11.3133 11.8652C13.739 10.7637 17.0386 9.9186 20.6105 9.4895C22.1989 9.29485 23.7966 9.19541 25.3959 9.19169L25.3964 9.18885ZM25.3959 8.79386C23.7819 8.79683 22.1694 8.89626 20.5663 9.09167C13.1086 9.99305 7.2801 12.6444 7.54428 15.0138C7.74843 16.8467 11.5376 17.9737 16.6942 17.9737C18.308 17.9699 19.9203 17.8697 21.5232 17.6736C28.9793 16.7722 34.8094 14.1209 34.5458 11.7515C34.3416 9.91803 30.5519 8.79045 25.3954 8.79102L25.3959 8.79386Z" fill="black"/>
<path d="M34.7356 15.1895C34.9959 17.5276 29.2423 20.0039 21.9357 20.8842C14.6291 21.7646 8.34923 20.5193 8.08887 18.1806" stroke="black" stroke-width="0.3" stroke-miterlimit="10"/>
<path d="M34.3618 11.8301L34.7363 15.189" stroke="black" stroke-width="0.3" stroke-miterlimit="10"/>
<path d="M7.7395 15.0469L8.09211 18.208" stroke="black" stroke-width="0.3" stroke-miterlimit="10"/>
<path d="M19.6242 33.05V33.4478C20.2606 33.4478 20.9112 33.4626 21.5581 33.4921C25.1486 33.6564 28.5 34.2526 30.9956 35.1722C33.2854 36.0161 34.6292 37.0778 34.5899 38.0138C34.5539 38.8664 33.3891 39.7098 31.393 40.3349C29.256 41.0033 26.333 41.3739 23.1623 41.3739C22.5258 41.3739 21.8746 41.3591 21.2278 41.3295C17.6384 41.1636 14.2864 40.5668 11.7908 39.6478C9.49833 38.8038 8.1572 37.7422 8.19651 36.8061C8.23253 35.9536 9.39735 35.1102 11.3935 34.4845C13.5304 33.8155 16.4534 33.4467 19.6242 33.4467V33.0488V33.05ZM19.6242 33.0488C13.0359 33.0488 7.90667 34.6157 7.81496 36.7885C7.71453 39.1716 13.71 41.3813 21.2115 41.724C21.873 41.7543 22.5233 41.7692 23.1623 41.7689C29.7505 41.7689 34.8798 40.202 34.9715 38.0292C35.0719 35.6456 29.0764 33.4359 21.575 33.0937C20.9131 33.0634 20.2628 33.0485 19.6242 33.0488Z" fill="black"/>
<path d="M34.6357 41.4563C34.5369 43.8081 28.4781 45.2994 21.1295 44.9635C13.7809 44.6276 7.77126 42.3577 7.8706 40.0059" stroke="black" stroke-width="0.3" stroke-miterlimit="10"/>
<path d="M34.7782 38.0781L34.6357 41.4563" stroke="black" stroke-width="0.3" stroke-miterlimit="10"/>
<path d="M8.00311 36.8555L7.86938 40.0348" stroke="black" stroke-width="0.3" stroke-miterlimit="10"/>
<path d="M25.5606 21.6275C28.0568 21.6275 31.1282 22.0822 34.2062 22.9119C37.6859 23.848 40.8452 25.1552 43.1033 26.5936C45.1775 27.9139 46.2785 29.2427 46.0536 30.1486C45.9035 30.755 45.1802 31.1205 44.5978 31.3205C43.7054 31.6274 42.4505 31.79 40.9686 31.79C38.4719 31.79 35.401 31.3353 32.3219 30.5055C28.8428 29.5695 25.6829 28.2623 23.4242 26.8227C21.3501 25.5024 20.2496 24.1737 20.474 23.2677C20.6246 22.6613 21.3473 22.2959 21.9303 22.0958C22.8227 21.7889 24.0776 21.6264 25.5601 21.6264L25.5606 21.6275ZM25.5601 21.2285C22.5181 21.2285 20.4227 21.8878 20.105 23.1683C19.5319 25.4774 24.9591 28.9346 32.2264 30.8897C35.4654 31.761 38.5227 32.1867 40.9686 32.1867C44.0105 32.1867 46.106 31.5274 46.4237 30.2475C46.9968 27.9378 41.5695 24.4806 34.3017 22.5255C31.0627 21.6542 28.0055 21.2285 25.5601 21.2285Z" fill="black"/>
<path d="M45.4128 33.5296C44.8473 35.8086 38.6231 35.9586 31.5016 34.0411C24.38 32.1235 18.9528 28.6077 19.5183 26.3281" stroke="black" stroke-width="0.3" stroke-miterlimit="10"/>
<path d="M46.225 30.2539L45.4128 33.5281" stroke="black" stroke-width="0.3" stroke-miterlimit="10"/>
<path d="M20.2764 23.2754L19.5117 26.3569" stroke="black" stroke-width="0.3" stroke-miterlimit="10"/>
</g>
<defs>
<clipPath id="clip0_1515_2544">
<rect width="38.9302" height="36.4186" fill="white" transform="translate(7.53491 8.79102)"/>
</clipPath>
</defs>
</svg>
