<svg width="8" height="10" viewBox="0 0 8 10" fill="none" xmlns="http://www.w3.org/2000/svg">
<path d="M5.14645 0.146447C5.34171 -0.0488156 5.65829 -0.0488155 5.85355 0.146447L7.85355 2.14645C8.04882 2.34171 8.04882 2.65829 7.85355 2.85355L5.85355 4.85355C5.65829 5.04882 5.34171 5.04882 5.14645 4.85355C4.95118 4.65829 4.95118 4.34171 5.14645 4.14645L6.29289 3L0.5 3C0.223858 3 2.08616e-07 2.77614 2.08616e-07 2.5C2.38419e-07 2.22386 0.223858 2 0.5 2L6.29289 2L5.14645 0.853553C4.95118 0.658291 4.95118 0.341709 5.14645 0.146447ZM2.85355 5.14645C3.04882 5.34171 3.04882 5.65829 2.85355 5.85355L1.70711 7H7.5C7.77614 7 8 7.22386 8 7.5C8 7.77614 7.77614 8 7.5 8H1.70711L2.85355 9.14645C3.04882 9.34171 3.04882 9.65829 2.85355 9.85355C2.65829 10.0488 2.34171 10.0488 2.14645 9.85355L0.146447 7.85355C0.0526784 7.75979 0 7.63261 0 7.5C0 7.36739 0.0526784 7.24021 0.146447 7.14645L2.14645 5.14645C2.34171 4.95118 2.65829 4.95118 2.85355 5.14645Z" fill="#3A3A3A"/>
</svg>
