<svg width="228" height="63" viewBox="0 0 228 63" fill="none" xmlns="http://www.w3.org/2000/svg">
<path fill-rule="evenodd" clip-rule="evenodd" d="M78.4101 38.2749L75.6002 33.5638H71.486V38.2749H69.0659V24.1291H76.353C77.2414 24.1222 78.1145 24.3521 78.8776 24.7937C79.6406 25.2354 80.264 25.8718 80.6801 26.6336C81.0961 27.3953 81.2887 28.2533 81.2371 29.1141C81.1852 29.9749 80.8912 30.8054 80.3867 31.515C79.8598 32.2677 79.1163 32.8533 78.2488 33.1986L81.2471 38.2749H78.4101ZM76.353 26.5301H71.486V31.228H76.353C76.6711 31.2278 76.9857 31.164 77.2773 31.0405C77.5686 30.9171 77.8308 30.7365 78.0471 30.5103C78.3822 30.1801 78.6097 29.7616 78.7015 29.3068C78.7932 28.852 78.7452 28.3809 78.5632 27.9525C78.381 27.524 78.0733 27.157 77.6779 26.897C77.2826 26.6373 76.817 26.496 76.3397 26.4911L76.353 26.5301ZM102.262 24.1291L94.9612 38.2749H97.6772L102.262 29.4141L106.833 38.2749H109.549L102.262 24.1291ZM133.024 24.1291H129.932L125.777 29.3488L121.636 24.1291H118.53L124.621 31.6717V38.2749H127.041V31.5543L133.024 24.1291ZM145.42 24.1291H150.274C152.202 24.1427 154.048 24.8923 155.411 26.2158C156.775 27.5391 157.547 29.3304 157.561 31.202C157.551 33.0747 156.78 34.8676 155.415 36.1918C154.051 37.5161 152.204 38.2646 150.274 38.2749H145.42V24.1291ZM150.274 35.8736C151.56 35.8703 152.793 35.3727 153.702 34.49C154.612 33.6073 155.124 32.4112 155.128 31.1627C155.114 29.9175 154.598 28.7271 153.691 27.8466C152.783 26.9661 151.557 26.4654 150.274 26.4518H147.827V35.8736H150.274ZM173.736 24.1291H171.316V38.2749H173.736V24.1291ZM199.632 32.3632C199.645 33.1414 199.493 33.9139 199.185 34.6325C198.878 35.351 198.422 36.0003 197.843 36.5392C196.993 37.3636 195.913 37.9248 194.735 38.1517C193.555 38.3785 192.336 38.2609 191.227 37.8136C190.117 37.3664 189.171 36.6096 188.506 35.6393C187.84 34.669 187.487 33.5288 187.49 32.3632V24.1291H189.91V32.3632C189.91 33.3013 190.294 34.2007 190.978 34.8641C191.66 35.5272 192.587 35.8998 193.554 35.8998C194.52 35.8998 195.447 35.5272 196.131 34.8641C196.813 34.2007 197.197 33.3013 197.197 32.3632V24.1291H199.632V32.3632ZM215.806 38.2749V29.8187L220.685 34.5425L225.54 29.8187V38.2749H228V24.1291L220.685 31.202L213.399 24.1291V38.2749H215.806Z" fill="#2F4050"/>
<path d="M51.0388 23.3339V45.0137L26.9248 58.9334L2.79739 45.0137V17.1609L26.9248 3.22774L45.4576 13.9331L48.255 12.3193L26.9248 0L0 15.547V46.6276L26.9248 62.1746L53.8497 46.6276V21.7201L51.0388 23.3339Z" fill="url(#paint0_linear_1726_1821)"/>
<path d="M20.1734 45.0229H16.1387V31.4931H29.5877C30.8601 31.4791 32.0758 30.9646 32.9718 30.0609C33.8678 29.1575 34.3721 27.9375 34.3755 26.6649C34.3827 26.0358 34.2613 25.4116 34.0185 24.8312C33.7755 24.2505 33.4166 23.7259 32.9633 23.2893C32.5247 22.8386 31.9998 22.4812 31.4197 22.2386C30.8396 21.9958 30.2164 21.8729 29.5877 21.877H16.1387V17.7617H29.601C31.958 17.7758 34.2144 18.7184 35.8811 20.385C37.5476 22.0516 38.4902 24.3081 38.5042 26.6649C38.5187 28.4691 37.9686 30.2325 36.9308 31.7082C35.9757 33.1203 34.6298 34.2233 33.0575 34.8822C31.5006 35.376 29.8759 35.6211 28.2427 35.6085H20.1734V45.0229Z" fill="url(#paint1_linear_1726_1821)"/>
<path d="M38.4101 44.6912H33.7029L30.0718 38.3568C31.5084 38.2688 32.9254 37.9791 34.2812 37.4961L38.4101 44.6912Z" fill="url(#paint2_linear_1726_1821)"/>
<path d="M48.228 18.8273L51.0119 20.374L53.796 18.8273V15.5592L51.0119 13.9453L48.228 15.5592V18.8273Z" fill="url(#paint3_linear_1726_1821)"/>
<defs>
<linearGradient id="paint0_linear_1726_1821" x1="53.802" y1="15.5641" x2="-3.29339" y2="38.3964" gradientUnits="userSpaceOnUse">
<stop stop-color="#C200FB"/>
<stop offset="0.489658" stop-color="#3772FF"/>
<stop offset="0.489758" stop-color="#3773FE"/>
<stop offset="1" stop-color="#5AC4BE"/>
</linearGradient>
<linearGradient id="paint1_linear_1726_1821" x1="53.8019" y1="15.5597" x2="-3.29348" y2="38.392" gradientUnits="userSpaceOnUse">
<stop stop-color="#C200FB"/>
<stop offset="0.489658" stop-color="#3772FF"/>
<stop offset="0.489758" stop-color="#3773FE"/>
<stop offset="1" stop-color="#5AC4BE"/>
</linearGradient>
<linearGradient id="paint2_linear_1726_1821" x1="53.8019" y1="15.5644" x2="-3.29353" y2="38.3967" gradientUnits="userSpaceOnUse">
<stop stop-color="#C200FB"/>
<stop offset="0.489658" stop-color="#3772FF"/>
<stop offset="0.489758" stop-color="#3773FE"/>
<stop offset="1" stop-color="#5AC4BE"/>
</linearGradient>
<linearGradient id="paint3_linear_1726_1821" x1="53.8021" y1="15.5628" x2="-3.29334" y2="38.3951" gradientUnits="userSpaceOnUse">
<stop stop-color="#C200FB"/>
<stop offset="0.489658" stop-color="#3772FF"/>
<stop offset="0.489758" stop-color="#3773FE"/>
<stop offset="1" stop-color="#5AC4BE"/>
</linearGradient>
</defs>
</svg>
