<svg width="55" height="55" viewBox="0 0 55 55" fill="none" xmlns="http://www.w3.org/2000/svg">
<circle opacity="0.3" cx="27.5" cy="27.5" r="27.5" fill="white"/>
<path d="M18.5026 17.1667C18.8452 17.1667 19.1737 17.3028 19.416 17.5451L27.166 25.2951C27.6704 25.7995 27.6704 26.6173 27.166 27.1218C26.6615 27.6262 25.8437 27.6262 25.3393 27.1218L19.7943 21.5768L19.7943 36.5417C19.7943 37.2551 19.216 37.8334 18.5026 37.8334C17.7892 37.8334 17.2109 37.2551 17.2109 36.5417L17.2109 21.5768L11.666 27.1218C11.1615 27.6262 10.3437 27.6262 9.83926 27.1218C9.33483 26.6173 9.33483 25.7995 9.83926 25.2951L17.5893 17.5451C17.8315 17.3028 18.16 17.1667 18.5026 17.1667Z" fill="white"/>
<path d="M36.5026 20.1667C37.216 20.1667 37.7943 20.745 37.7943 21.4584V36.4234L43.3393 30.8784C43.8437 30.374 44.6615 30.374 45.166 30.8784C45.6704 31.3828 45.6704 32.2007 45.166 32.7051L37.416 40.4551C36.9115 40.9595 36.0937 40.9595 35.5893 40.4551L27.8393 32.7051C27.3348 32.2007 27.3348 31.3828 27.8393 30.8784C28.3437 30.374 29.1615 30.374 29.666 30.8784L35.2109 36.4234V21.4584C35.2109 20.745 35.7892 20.1667 36.5026 20.1667Z" fill="white"/>
</svg>
