<svg width="531" height="531" viewBox="0 0 531 531" fill="none" xmlns="http://www.w3.org/2000/svg">
<ellipse rx="258.548" ry="258.599" transform="matrix(0.999658 -0.0261645 0.0261543 0.999658 265.715 265.275)" fill="url(#paint0_linear_679_3498)"/>
<path d="M424.779 312.002C424.779 361.937 393.93 436.046 293.675 436.046C193.419 436.046 112.146 394.09 112.146 291.328C112.146 188.567 163.165 94.9258 263.42 94.9258C314.959 94.9258 321.141 152.603 354.184 187.959C385.418 221.379 424.779 262.068 424.779 312.002Z" fill="white"/>
<path d="M222.126 330.156C223.034 328.988 224.267 328.329 225.553 328.329H344.19C346.35 328.329 347.434 331.691 345.905 333.657L322.462 363.795C321.554 364.963 320.32 365.622 319.035 365.622H200.398C198.238 365.622 197.154 362.261 198.682 360.294L222.126 330.156Z" fill="#FFD276"/>
<path d="M222.126 217.57C223.034 216.401 224.267 215.742 225.553 215.742H344.19C346.35 215.742 347.434 219.104 345.905 221.071L322.462 251.21C321.554 252.378 320.32 253.037 319.035 253.037H200.398C198.238 253.037 197.154 249.675 198.682 247.709L222.126 217.57Z" fill="#FFD276"/>
<path d="M322.462 273.494C321.554 272.326 320.32 271.667 319.035 271.667H200.398C198.238 271.667 197.154 275.028 198.682 276.995L222.126 307.133C223.034 308.302 224.267 308.961 225.553 308.961H344.19C346.35 308.961 347.434 305.599 345.905 303.632L322.462 273.494Z" fill="#FFD276"/>
<defs>
<linearGradient id="paint0_linear_679_3498" x1="100.838" y1="441.175" x2="476.358" y2="102.41" gradientUnits="userSpaceOnUse">
<stop stop-color="#9945FF"/>
<stop offset="0.135417" stop-color="#8453F4"/>
<stop offset="0.515625" stop-color="#8A53F4"/>
<stop offset="0.84375" stop-color="#24B0A7"/>
<stop offset="1" stop-color="#00D18C"/>
</linearGradient>
</defs>
</svg>
