<svg width="557" height="557" viewBox="0 0 557 557" fill="none" xmlns="http://www.w3.org/2000/svg">
<path d="M278.5 557C432.311 557 557 432.311 557 278.5C557 124.689 432.311 0 278.5 0C124.689 0 0 124.689 0 278.5C0 432.311 124.689 557 278.5 557Z" fill="black"/>
<path d="M147.941 358.355C150.305 355.991 153.515 354.658 156.861 354.658H465.614C471.236 354.658 474.057 361.458 470.079 365.436L409.068 426.399C406.704 428.763 403.494 430.096 400.147 430.096H91.3946C85.7721 430.096 82.9511 423.296 86.9297 419.317L147.941 358.355Z" fill="url(#paint0_linear_1167_2605)"/>
<path d="M147.941 130.615C150.305 128.252 153.515 126.919 156.862 126.919H465.614C471.237 126.919 474.058 133.719 470.079 137.697L409.068 198.66C406.704 201.023 403.494 202.356 400.148 202.356H91.3951C85.7726 202.356 82.9516 195.557 86.9301 191.578L147.941 130.615Z" fill="url(#paint1_linear_1167_2605)"/>
<path d="M409.068 243.758C406.704 241.394 403.494 240.062 400.147 240.062H91.3946C85.7721 240.062 82.9511 246.861 86.9297 250.84L147.941 311.802C150.305 314.166 153.515 315.499 156.861 315.499H465.614C471.236 315.499 474.057 308.699 470.079 304.721L409.068 243.758Z" fill="url(#paint2_linear_1167_2605)"/>
<defs>
<linearGradient id="paint0_linear_1167_2605" x1="436.121" y1="90.4834" x2="222.439" y2="499.77" gradientUnits="userSpaceOnUse">
<stop stop-color="#00FFA3"/>
<stop offset="1" stop-color="#DC1FFF"/>
</linearGradient>
<linearGradient id="paint1_linear_1167_2605" x1="342.689" y1="41.7065" x2="129.007" y2="450.992" gradientUnits="userSpaceOnUse">
<stop stop-color="#00FFA3"/>
<stop offset="1" stop-color="#DC1FFF"/>
</linearGradient>
<linearGradient id="paint2_linear_1167_2605" x1="389.107" y1="65.9423" x2="175.426" y2="475.228" gradientUnits="userSpaceOnUse">
<stop stop-color="#00FFA3"/>
<stop offset="1" stop-color="#DC1FFF"/>
</linearGradient>
</defs>
</svg>
