<svg width="16" height="16" viewBox="0 0 16 16" fill="none" xmlns="http://www.w3.org/2000/svg">
<circle cx="8" cy="8" r="8" fill="#E1D8C6"/>
<path d="M7.92793 3.94C8.58793 3.94 9.12126 4.12667 9.52793 4.5C9.9346 4.87333 10.1379 5.37333 10.1379 6C10.1379 6.7 9.92126 7.22 9.48793 7.56C9.0546 7.89333 8.46793 8.06 7.72793 8.06L7.69793 9.01H6.90793L6.86793 7.43H7.15793C7.81793 7.43 8.3346 7.33 8.70793 7.13C9.08126 6.93 9.26793 6.55333 9.26793 6C9.26793 5.6 9.14793 5.28333 8.90793 5.05C8.66793 4.81667 8.3446 4.7 7.93793 4.7C7.5246 4.7 7.19793 4.81333 6.95793 5.04C6.7246 5.26 6.60793 5.56333 6.60793 5.95H5.74793C5.74793 5.55 5.83793 5.2 6.01793 4.9C6.19793 4.59333 6.45126 4.35667 6.77793 4.19C7.11126 4.02333 7.4946 3.94 7.92793 3.94ZM7.29793 11.06C7.1246 11.06 6.97793 11 6.85793 10.88C6.73793 10.76 6.67793 10.6133 6.67793 10.44C6.67793 10.2667 6.73793 10.12 6.85793 10C6.97793 9.88 7.1246 9.82 7.29793 9.82C7.4646 9.82 7.6046 9.88 7.71793 10C7.83793 10.12 7.89793 10.2667 7.89793 10.44C7.89793 10.6133 7.83793 10.76 7.71793 10.88C7.6046 11 7.4646 11.06 7.29793 11.06Z" fill="black"/>
</svg>
