<svg width="31" height="26" viewBox="0 0 31 26" fill="none" xmlns="http://www.w3.org/2000/svg">
<g clip-path="url(#clip0_507:337)">
<path d="M2.08822 1.21355C5.54031 5.39442 9.87634 7.68115 15.1242 8.05684C15.1 7.37934 15.0393 6.73815 15.0611 6.09947C15.1521 3.4527 17.1474 0.911741 19.6397 0.249891C21.9932 -0.37439 24.066 0.164733 25.84 1.88667C25.9703 2.01316 26.0777 2.05323 26.2626 2.01003C27.4793 1.72763 28.6361 1.28619 29.7262 0.660025C29.8116 0.610559 29.9008 0.56798 30.0366 0.496598C29.8153 1.27241 29.4812 1.93739 29.0053 2.50094C28.5342 3.05884 27.9892 3.55038 27.4872 4.06007C28.6142 3.92795 29.7304 3.58357 30.815 3.11395C30.8375 3.13962 30.8599 3.16529 30.8823 3.19096C30.3791 3.80022 29.9014 4.43451 29.3654 5.01058C28.9343 5.47394 28.4384 5.87468 27.9589 6.28795C27.814 6.41255 27.7479 6.5309 27.7522 6.73127C27.8395 10.9591 26.6906 14.81 24.3449 18.2608C21.5985 22.3014 17.8548 24.7885 13.1435 25.6732C9.83087 26.295 6.57885 26.0308 3.4105 24.8304C2.26283 24.3959 1.17276 23.8367 0.134828 23.1692C0.104514 23.1498 0.0778383 23.1229 -0.000976562 23.0571C3.46324 23.3815 6.53398 22.5111 9.3107 20.3496C6.40667 20.0898 4.46721 18.597 3.38928 15.7856C4.36354 15.9108 5.26992 15.9277 6.22661 15.6484C4.72003 15.2784 3.50932 14.5232 2.57869 13.3216C1.64746 12.1188 1.18367 10.7456 1.1861 9.14323C2.07609 9.61348 2.96731 9.90464 4.02828 9.94096C2.63811 8.89778 1.75114 7.59662 1.39586 5.95045C1.04119 4.3024 1.26916 2.72886 2.08822 1.21355Z" fill="black"/>
</g>
<defs>
<clipPath id="clip0_507:337">
<rect width="30.8839" height="26" fill="white"/>
</clipPath>
</defs>
</svg>
