<svg width="27" height="25" viewBox="0 0 27 25" fill="none" xmlns="http://www.w3.org/2000/svg">
<rect x="3.125" y="7.8125" width="23.4375" height="17.1875" rx="1" fill="#FFE872"/>
<path d="M21.9431 5.64902H3.05425C1.82695 5.64902 0.832031 6.64394 0.832031 7.87124V21.2046C0.832031 22.4319 1.82695 23.4268 3.05425 23.4268H21.9431C23.1704 23.4268 24.1654 22.4319 24.1654 21.2046V7.87124C24.1654 6.64394 23.1704 5.64902 21.9431 5.64902Z" stroke="#575757" stroke-linecap="round" stroke-linejoin="round"/>
<path d="M0.831393 8.29928C0.831393 8.17706 0.831393 7.22705 0.831393 7.09928C0.805621 6.65649 0.932877 6.21831 1.19182 5.85821C1.45077 5.49812 1.82566 5.23801 2.25361 5.1215L18.0147 0.899275C18.5067 0.769848 19.0299 0.83958 19.4709 1.09333C19.9118 1.34709 20.235 1.76441 20.3703 2.25483L20.7203 5.64928" stroke="#575757" stroke-linecap="round" stroke-linejoin="round"/>
<path d="M18.3181 15.65C18.9318 15.65 19.4293 15.1526 19.4293 14.5389C19.4293 13.9253 18.9318 13.4278 18.3181 13.4278C17.7045 13.4278 17.207 13.9253 17.207 14.5389C17.207 15.1526 17.7045 15.65 18.3181 15.65Z" fill="#575757"/>
<path d="M18.0551 11.761H24.1662V17.3165H18.0551C17.3184 17.3165 16.6119 17.0239 16.0909 16.5029C15.57 15.982 15.2773 15.2754 15.2773 14.5387V14.5387C15.2773 13.802 15.57 13.0955 16.0909 12.5745C16.6119 12.0536 17.3184 11.761 18.0551 11.761V11.761Z" stroke="#575757" stroke-linecap="round" stroke-linejoin="round"/>
</svg>
